<?xml version="1.0" encoding="UTF-8" standalone="no"?>
<!-- Created with Inkscape (http://www.inkscape.org/) -->

<svg
   width="164.87724mm"
   height="67.465324mm"
   viewBox="0 0 164.87724 67.465324"
   version="1.1"
   id="svg1"
   xmlns:inkscape="http://www.inkscape.org/namespaces/inkscape"
   xmlns:sodipodi="http://sodipodi.sourceforge.net/DTD/sodipodi-0.dtd"
   xmlns="http://www.w3.org/2000/svg"
   xmlns:svg="http://www.w3.org/2000/svg">
  <sodipodi:namedview
     id="namedview1"
     pagecolor="#ffffff"
     bordercolor="#000000"
     borderopacity="0.25"
     inkscape:showpageshadow="2"
     inkscape:pageopacity="0.0"
     inkscape:pagecheckerboard="0"
     inkscape:deskcolor="#d1d1d1"
     inkscape:document-units="mm" />
  <defs
     id="defs1">
    <clipPath
       clipPathUnits="userSpaceOnUse"
       id="clipPath4">
      <path
         d="M 0,272.321 H 559.04 V 0 H 0 Z"
         transform="translate(-321.56251,-116.1861)"
         id="path4" />
    </clipPath>
    <clipPath
       clipPathUnits="userSpaceOnUse"
       id="clipPath6">
      <path
         d="M 0,272.321 H 559.04 V 0 H 0 Z"
         transform="translate(-502.07782,-160.7892)"
         id="path6" />
    </clipPath>
    <clipPath
       clipPathUnits="userSpaceOnUse"
       id="clipPath8">
      <path
         d="M 0,272.321 H 559.04 V 0 H 0 Z"
         transform="translate(-69.853402,-68.655202)"
         id="path8-6" />
    </clipPath>
    <clipPath
       clipPathUnits="userSpaceOnUse"
       id="clipPath10">
      <path
         d="M 0,272.321 H 559.04 V 0 H 0 Z"
         transform="translate(-79.262702,-51.063801)"
         id="path10-0" />
    </clipPath>
    <clipPath
       clipPathUnits="userSpaceOnUse"
       id="clipPath12">
      <path
         d="M 0,272.321 H 559.04 V 0 H 0 Z"
         transform="translate(-101.5512,-51.063801)"
         id="path12" />
    </clipPath>
    <clipPath
       clipPathUnits="userSpaceOnUse"
       id="clipPath14">
      <path
         d="M 0,272.321 H 559.04 V 0 H 0 Z"
         transform="translate(-142.1185,-46.832601)"
         id="path14" />
    </clipPath>
    <clipPath
       clipPathUnits="userSpaceOnUse"
       id="clipPath16">
      <path
         d="M 0,272.321 H 559.04 V 0 H 0 Z"
         transform="translate(-147.2728,-60.974099)"
         id="path16" />
    </clipPath>
    <clipPath
       clipPathUnits="userSpaceOnUse"
       id="clipPath18">
      <path
         d="M 0,272.321 H 559.04 V 0 H 0 Z"
         transform="translate(-160.8664,-60.974099)"
         id="path18" />
    </clipPath>
    <clipPath
       clipPathUnits="userSpaceOnUse"
       id="clipPath20">
      <path
         d="M 0,272.321 H 559.04 V 0 H 0 Z"
         transform="translate(-193.08681,-41.152499)"
         id="path20" />
    </clipPath>
    <clipPath
       clipPathUnits="userSpaceOnUse"
       id="clipPath22">
      <path
         d="M 0,272.321 H 559.04 V 0 H 0 Z"
         id="path22" />
    </clipPath>
    <clipPath
       clipPathUnits="userSpaceOnUse"
       id="clipPath24">
      <path
         d="M 0,272.321 H 559.04 V 0 H 0 Z"
         transform="translate(-243.6829,-46.832601)"
         id="path24" />
    </clipPath>
    <clipPath
       clipPathUnits="userSpaceOnUse"
       id="clipPath26">
      <path
         d="M 0,272.321 H 559.04 V 0 H 0 Z"
         transform="translate(-248.8369,-60.974099)"
         id="path26" />
    </clipPath>
    <clipPath
       clipPathUnits="userSpaceOnUse"
       id="clipPath28">
      <path
         d="M 0,272.321 H 559.04 V 0 H 0 Z"
         transform="translate(-270.00091,-51.063801)"
         id="path28" />
    </clipPath>
    <clipPath
       clipPathUnits="userSpaceOnUse"
       id="clipPath30">
      <path
         d="M 0,272.321 H 559.04 V 0 H 0 Z"
         transform="translate(-310.56741,-46.832601)"
         id="path30" />
    </clipPath>
    <clipPath
       clipPathUnits="userSpaceOnUse"
       id="clipPath32">
      <path
         d="M 0,272.321 H 559.04 V 0 H 0 Z"
         transform="translate(-314.75041,-51.063801)"
         id="path32" />
    </clipPath>
    <clipPath
       clipPathUnits="userSpaceOnUse"
       id="clipPath34">
      <path
         d="M 0,272.321 H 559.04 V 0 H 0 Z"
         transform="translate(-351.12571,-48.718799)"
         id="path34" />
    </clipPath>
    <clipPath
       clipPathUnits="userSpaceOnUse"
       id="clipPath36">
      <path
         d="M 0,272.321 H 559.04 V 0 H 0 Z"
         transform="translate(-372.25391,-51.063801)"
         id="path36" />
    </clipPath>
    <clipPath
       clipPathUnits="userSpaceOnUse"
       id="clipPath38">
      <path
         d="M 0,272.321 H 559.04 V 0 H 0 Z"
         id="path38" />
    </clipPath>
    <clipPath
       clipPathUnits="userSpaceOnUse"
       id="clipPath40">
      <path
         d="M 0,272.321 H 559.04 V 0 H 0 Z"
         transform="translate(-421.32221,-41.152499)"
         id="path40" />
    </clipPath>
    <clipPath
       clipPathUnits="userSpaceOnUse"
       id="clipPath42">
      <path
         d="M 0,272.321 H 559.04 V 0 H 0 Z"
         transform="translate(-431.56621,-65.758199)"
         id="path42" />
    </clipPath>
    <clipPath
       clipPathUnits="userSpaceOnUse"
       id="clipPath44">
      <path
         d="M 0,272.321 H 559.04 V 0 H 0 Z"
         transform="translate(-440.27991,-66.368999)"
         id="path44" />
    </clipPath>
    <clipPath
       clipPathUnits="userSpaceOnUse"
       id="clipPath46">
      <path
         d="M 0,272.321 H 559.04 V 0 H 0 Z"
         transform="translate(-449.06951,-51.063801)"
         id="path46" />
    </clipPath>
    <clipPath
       clipPathUnits="userSpaceOnUse"
       id="clipPath48">
      <path
         d="M 0,272.321 H 559.04 V 0 H 0 Z"
         transform="translate(-472.32931,-60.974099)"
         id="path48" />
    </clipPath>
    <clipPath
       clipPathUnits="userSpaceOnUse"
       id="clipPath50">
      <path
         d="M 0,272.321 H 559.04 V 0 H 0 Z"
         transform="translate(-501.51742,-61.317899)"
         id="path50" />
    </clipPath>
  </defs>
  <g
     inkscape:label="Layer 1"
     inkscape:groupmode="layer"
     id="layer1"
     transform="translate(-22.466845,-59.784991)">
    <g
       id="group-MC0"
       transform="matrix(0.26458333,0,0,0.26458333,6.4661863,45.538092)">
      <path
         id="path2"
         d="M 0,0 -37.149,-111.741 -74.296,0 h -44.972 v -112.419 h 30.316 l -2.184,81.412 38.537,-114.612 h 32.488 L 17.235,-32.194 14.759,-145.619 H 44.771 V 0 Z"
         style="fill:#26336f;fill-opacity:1;fill-rule:nonzero;stroke:none"
         transform="matrix(1.3333333,0,0,-1.3333333,219.49893,54.932133)" />
      <path
         id="path3"
         d="m 0,0 c -3.172,-2.743 -8.256,-4.112 -15.255,-4.112 h -45.269 v 34.275 h 45.269 c 6.933,0 11.999,-1.386 15.205,-4.159 C 3.153,23.228 4.753,18.87 4.753,12.926 4.753,7.047 3.167,2.739 0,0 m 32.442,30.113 c -3.602,5.381 -9.166,9.659 -16.694,12.826 7.463,3.832 12.945,8.572 16.444,14.218 3.501,5.645 5.251,12.53 5.251,20.652 0,6.801 -1.403,12.878 -4.211,18.227 -2.806,5.348 -6.883,9.706 -12.233,13.075 -3.633,2.312 -8.403,3.995 -14.314,5.051 -5.91,1.057 -13.589,1.588 -23.032,1.588 H -60.278 V 89.597 h 44.53 c 6.931,0 12.016,-1.355 15.25,-4.06 3.237,-2.71 4.856,-6.967 4.856,-12.781 0,-5.744 -1.619,-9.989 -4.856,-12.728 -3.234,-2.739 -8.319,-4.113 -15.25,-4.113 H -60.524 V 89.282 H -91.136 V -29.867 h 80.139 c 16.708,0 29.024,3.218 36.949,9.66 7.922,6.437 11.886,16.458 11.886,30.064 0,8.12 -1.798,14.872 -5.396,20.256"
         style="fill:#3871c1;fill-opacity:1;fill-rule:nonzero;stroke:none"
         transform="matrix(1.3333333,0,0,-1.3333333,428.75,208.17987)"
         clip-path="url(#clipPath4)" />
      <path
         id="path5"
         d="m 0,0 c -7.099,6.339 -19.038,9.508 -35.809,9.508 h -40.515 c -6.406,0 -11.227,1.321 -14.463,3.962 -3.237,2.642 -4.856,6.603 -4.856,11.887 0,6.604 1.9,11.426 5.698,14.466 3.797,3.035 9.758,4.553 17.882,4.553 h 33.148 v 25.956 h -37.607 c -17.765,0 -30.724,-3.566 -38.879,-10.697 -8.158,-7.135 -12.237,-18.426 -12.237,-33.881 0,-14.463 3.881,-25.046 11.642,-31.748 7.759,-6.703 20.025,-10.053 36.8,-10.053 h 36.156 c 7.924,0 13.52,-1.287 16.79,-3.864 3.27,-2.575 4.902,-6.9 4.902,-12.976 0,-5.879 -1.781,-10.088 -5.347,-12.63 -3.569,-2.543 -9.708,-3.816 -18.429,-3.816 h -76.669 v -25.952 h 81.525 c 17.567,0 30.443,3.518 38.632,10.552 8.189,7.032 12.283,18.044 12.283,33.035 C 10.647,-16.906 7.097,-6.339 0,0"
         style="fill:#50ade5;fill-opacity:1;fill-rule:nonzero;stroke:none"
         transform="matrix(1.3333333,0,0,-1.3333333,669.43707,148.70907)"
         clip-path="url(#clipPath6)" />
      <path
         id="path7"
         d="M 0,0 -9.491,-22.946 H -9.645 L -19.136,0 h -3.983 v -27.502 h 3.204 v 21.195 h 0.132 l 8.767,-21.006 h 2.898 L 0.649,-6.307 H 0.781 V -27.502 H 3.982 V 0 Z"
         style="fill:#3871c1;fill-opacity:1;fill-rule:nonzero;stroke:none"
         transform="matrix(1.3333333,0,0,-1.3333333,93.137867,271.5544)"
         clip-path="url(#clipPath8)" />
      <path
         id="path9-4"
         d="m 0,0 c 0,6.328 3.699,10.254 9.187,10.254 5.469,0 9.168,-3.926 9.168,-10.254 0,-6.309 -3.699,-10.254 -9.168,-10.254 C 3.699,-10.254 0,-6.309 0,0 m 14.982,0 c 0,4.669 -2.288,7.339 -5.795,7.339 -3.508,0 -5.814,-2.67 -5.814,-7.339 0,-4.669 2.306,-7.339 5.814,-7.339 3.507,0 5.795,2.67 5.795,7.339"
         style="fill:#3871c1;fill-opacity:1;fill-rule:nonzero;stroke:none"
         transform="matrix(1.3333333,0,0,-1.3333333,105.6836,295.0096)"
         clip-path="url(#clipPath10)" />
      <path
         id="path11"
         d="m 0,0 c 0,6.213 3.413,10.254 8.406,10.254 2.839,0 5.127,-1.391 6.309,-3.564 h 0.076 v 10.9 h 3.316 V -9.912 h -3.165 v 3.355 H 14.885 C 13.608,-8.842 11.34,-10.254 8.481,-10.254 3.432,-10.254 0,-6.213 0,0 m 3.394,0 c 0,-4.499 2.21,-7.339 5.717,-7.339 3.411,0 5.699,2.899 5.699,7.339 0,4.421 -2.288,7.339 -5.699,7.339 C 5.604,7.339 3.394,4.48 3.394,0"
         style="fill:#3871c1;fill-opacity:1;fill-rule:nonzero;stroke:none"
         transform="matrix(1.3333333,0,0,-1.3333333,135.4016,295.0096)"
         clip-path="url(#clipPath12)" />
      <path
         id="path13"
         d="m 0,0 c -0.571,-3.47 -3.926,-6.024 -8.252,-6.024 -5.68,0 -9.13,3.947 -9.13,10.181 0,6.154 3.507,10.329 8.976,10.329 5.356,0 8.654,-3.89 8.654,-9.893 V 3.335 H -13.969 V 3.146 c 0,-3.795 2.228,-6.29 5.792,-6.29 2.517,0 4.365,1.277 4.917,3.144 z m -13.951,5.927 h 10.769 c -0.078,3.317 -2.155,5.68 -5.28,5.68 -3.107,0 -5.281,-2.382 -5.489,-5.68"
         style="fill:#3871c1;fill-opacity:1;fill-rule:nonzero;stroke:none"
         transform="matrix(1.3333333,0,0,-1.3333333,189.49133,300.6512)"
         clip-path="url(#clipPath14)" />
      <path
         id="path15"
         d="m 0,0 h 3.125 v -3.239 h 0.076 c 0.649,2.191 2.478,3.583 4.803,3.583 0.572,0 1.067,-0.096 1.334,-0.134 v -3.22 c -0.267,0.095 -0.97,0.189 -1.773,0.189 -2.572,0 -4.249,-1.848 -4.249,-4.65 v -12.35 H 0 Z"
         style="fill:#3871c1;fill-opacity:1;fill-rule:nonzero;stroke:none"
         transform="matrix(1.3333333,0,0,-1.3333333,196.36373,281.79587)"
         clip-path="url(#clipPath16)" />
      <path
         id="path17"
         d="m 0,0 h 3.125 v -3.163 h 0.076 c 1.107,2.134 3.222,3.507 6.29,3.507 4.346,0 6.862,-2.801 6.862,-7.3 v -12.865 h -3.316 v 12.274 c 0,3.201 -1.506,4.955 -4.556,4.955 -3.125,0 -5.165,-2.209 -5.165,-5.566 V -19.821 H 0 Z"
         style="fill:#3871c1;fill-opacity:1;fill-rule:nonzero;stroke:none"
         transform="matrix(1.3333333,0,0,-1.3333333,214.48853,281.79587)"
         clip-path="url(#clipPath18)" />
      <path
         id="path19"
         d="m 0,0 v 27.502 h 10.426 c 4.707,0 7.891,-2.743 7.891,-6.86 0,-2.858 -2.098,-5.528 -4.747,-6.005 V 14.486 C 17.307,14.009 19.708,11.378 19.708,7.719 19.708,2.88 16.24,0 10.388,0 Z m 3.432,15.648 h 5.146 c 4.058,0 6.269,1.619 6.269,4.593 0,2.726 -1.867,4.232 -5.202,4.232 H 3.432 Z M 9.874,3.031 c 4.135,0 6.307,1.676 6.307,4.86 0,3.182 -2.247,4.804 -6.633,4.804 H 3.432 V 3.031 Z"
         style="fill:#3871c1;fill-opacity:1;fill-rule:nonzero;stroke:none"
         transform="matrix(1.3333333,0,0,-1.3333333,257.44907,308.22467)"
         clip-path="url(#clipPath20)" />
      <path
         id="path21"
         d="m 217.913,41.154 h 3.316 v 27.502 h -3.316 z"
         style="fill:#3871c1;fill-opacity:1;fill-rule:nonzero;stroke:none"
         transform="matrix(1.3333333,0,0,-1.3333333,0,363.09467)"
         clip-path="url(#clipPath22)" />
      <path
         id="path23"
         d="m 0,0 c -0.571,-3.47 -3.926,-6.024 -8.252,-6.024 -5.682,0 -9.13,3.947 -9.13,10.181 0,6.154 3.507,10.329 8.976,10.329 5.356,0 8.654,-3.89 8.654,-9.893 V 3.335 H -13.971 V 3.146 c 0,-3.795 2.23,-6.29 5.794,-6.29 2.517,0 4.365,1.277 4.917,3.144 z m -13.953,5.927 h 10.771 c -0.078,3.317 -2.155,5.68 -5.28,5.68 -3.107,0 -5.281,-2.382 -5.491,-5.68"
         style="fill:#3871c1;fill-opacity:1;fill-rule:nonzero;stroke:none"
         transform="matrix(1.3333333,0,0,-1.3333333,324.91053,300.6512)"
         clip-path="url(#clipPath24)" />
      <path
         id="path25"
         d="m 0,0 h 3.125 v -3.163 h 0.076 c 1.107,2.134 3.222,3.507 6.29,3.507 4.346,0 6.862,-2.801 6.862,-7.3 v -12.865 h -3.316 v 12.274 c 0,3.201 -1.506,4.955 -4.556,4.955 -3.125,0 -5.165,-2.209 -5.165,-5.566 V -19.821 H 0 Z"
         style="fill:#3871c1;fill-opacity:1;fill-rule:nonzero;stroke:none"
         transform="matrix(1.3333333,0,0,-1.3333333,331.78253,281.79587)"
         clip-path="url(#clipPath26)" />
      <path
         id="path27"
         d="m 0,0 c 0,6.213 3.411,10.254 8.406,10.254 2.839,0 5.127,-1.391 6.307,-3.564 h 0.078 v 10.9 h 3.316 V -9.912 h -3.165 v 3.355 H 14.885 C 13.608,-8.842 11.34,-10.254 8.481,-10.254 3.43,-10.254 0,-6.213 0,0 m 3.392,0 c 0,-4.499 2.212,-7.339 5.719,-7.339 3.411,0 5.699,2.899 5.699,7.339 0,4.421 -2.288,7.339 -5.699,7.339 C 5.604,7.339 3.392,4.48 3.392,0"
         style="fill:#3871c1;fill-opacity:1;fill-rule:nonzero;stroke:none"
         transform="matrix(1.3333333,0,0,-1.3333333,360.0012,295.0096)"
         clip-path="url(#clipPath28)" />
      <path
         id="path29"
         d="m 0,0 c -0.571,-3.47 -3.926,-6.024 -8.252,-6.024 -5.68,0 -9.13,3.947 -9.13,10.181 0,6.154 3.507,10.329 8.976,10.329 5.356,0 8.654,-3.89 8.654,-9.893 V 3.335 H -13.971 V 3.146 c 0,-3.795 2.23,-6.29 5.794,-6.29 2.517,0 4.365,1.277 4.917,3.144 z m -13.951,5.927 h 10.769 c -0.078,3.317 -2.155,5.68 -5.28,5.68 -3.107,0 -5.281,-2.382 -5.489,-5.68"
         style="fill:#3871c1;fill-opacity:1;fill-rule:nonzero;stroke:none"
         transform="matrix(1.3333333,0,0,-1.3333333,414.08987,300.6512)"
         clip-path="url(#clipPath30)" />
      <path
         id="path31"
         d="m 0,0 c 0,6.213 3.411,10.254 8.404,10.254 2.841,0 5.129,-1.391 6.309,-3.564 h 0.078 v 10.9 h 3.314 V -9.912 h -3.163 v 3.355 H 14.885 C 13.608,-8.842 11.34,-10.254 8.481,-10.254 3.43,-10.254 0,-6.213 0,0 m 3.392,0 c 0,-4.499 2.212,-7.339 5.717,-7.339 3.413,0 5.698,2.899 5.698,7.339 0,4.421 -2.285,7.339 -5.698,7.339 C 5.604,7.339 3.392,4.48 3.392,0"
         style="fill:#3871c1;fill-opacity:1;fill-rule:nonzero;stroke:none"
         transform="matrix(1.3333333,0,0,-1.3333333,419.6672,295.0096)"
         clip-path="url(#clipPath32)" />
      <path
         id="path33"
         d="m 0,0 c 0.323,-2.974 3.144,-4.936 7.072,-4.936 3.715,0 6.423,1.962 6.423,4.669 0,2.327 -1.62,3.756 -5.318,4.709 L 4.652,5.356 c -5.072,1.296 -7.319,3.526 -7.319,7.261 0,4.574 4.001,7.777 9.72,7.777 5.469,0 9.435,-3.24 9.586,-7.853 h -3.43 c -0.304,2.955 -2.688,4.766 -6.269,4.766 -3.567,0 -6.043,-1.848 -6.043,-4.537 0,-2.077 1.525,-3.316 5.259,-4.289 l 2.878,-0.76 c 5.7,-1.43 8.006,-3.623 8.006,-7.568 0,-5.032 -3.965,-8.176 -10.294,-8.176 -5.83,0 -9.871,3.163 -10.195,8.023 z"
         style="fill:#3871c1;fill-opacity:1;fill-rule:nonzero;stroke:none"
         transform="matrix(1.3333333,0,0,-1.3333333,468.1676,298.13627)"
         clip-path="url(#clipPath34)" />
      <path
         id="path35"
         d="m 0,0 c 0,6.328 3.697,10.254 9.187,10.254 5.469,0 9.168,-3.926 9.168,-10.254 0,-6.309 -3.699,-10.254 -9.168,-10.254 C 3.697,-10.254 0,-6.309 0,0 m 14.98,0 c 0,4.669 -2.288,7.339 -5.793,7.339 -3.508,0 -5.814,-2.67 -5.814,-7.339 0,-4.669 2.306,-7.339 5.814,-7.339 3.505,0 5.793,2.67 5.793,7.339"
         style="fill:#3871c1;fill-opacity:1;fill-rule:nonzero;stroke:none"
         transform="matrix(1.3333333,0,0,-1.3333333,496.33853,295.0096)"
         clip-path="url(#clipPath36)" />
      <path
         id="path37"
         d="m 395.686,41.154 h 3.316 v 27.502 h -3.316 z"
         style="fill:#3871c1;fill-opacity:1;fill-rule:nonzero;stroke:none"
         transform="matrix(1.3333333,0,0,-1.3333333,0,363.09467)"
         clip-path="url(#clipPath38)" />
      <path
         id="path39"
         d="M 0,0 H -3.144 V 3.222 H -3.22 c -1.182,-2.287 -3.241,-3.566 -6.29,-3.566 -4.327,0 -6.862,2.804 -6.862,7.3 v 12.865 h 3.318 V 7.549 c 0,-3.222 1.504,-4.957 4.573,-4.957 3.222,0 5.165,2.211 5.165,5.585 V 19.821 H 0 Z"
         style="fill:#3871c1;fill-opacity:1;fill-rule:nonzero;stroke:none"
         transform="matrix(1.3333333,0,0,-1.3333333,561.76293,308.22467)"
         clip-path="url(#clipPath40)" />
      <path
         id="path41"
         d="M 0,0 V -4.785 H 3.85 V -7.509 H 0 v -11.778 c 0,-1.811 0.762,-2.632 2.457,-2.632 0.383,0 1.145,0.059 1.374,0.096 v -2.783 C 3.43,-24.7 2.514,-24.759 1.735,-24.759 c -3.64,0 -5.051,1.487 -5.051,5.299 v 11.951 h -2.956 v 2.724 h 2.956 V 0 Z"
         style="fill:#3871c1;fill-opacity:1;fill-rule:nonzero;stroke:none"
         transform="matrix(1.3333333,0,0,-1.3333333,575.4216,275.41707)"
         clip-path="url(#clipPath42)" />
      <path
         id="path43"
         d="M 0,0 C 0,1.143 0.933,2.058 2.058,2.058 3.201,2.058 4.136,1.143 4.136,0 4.136,-1.126 3.201,-2.058 2.058,-2.058 0.933,-2.058 0,-1.126 0,0 M 0.399,-5.396 H 3.715 V -25.217 H 0.399 Z"
         style="fill:#3871c1;fill-opacity:1;fill-rule:nonzero;stroke:none"
         transform="matrix(1.3333333,0,0,-1.3333333,587.03987,274.60267)"
         clip-path="url(#clipPath44)" />
      <path
         id="path45"
         d="m 0,0 c 0,6.328 3.697,10.254 9.187,10.254 5.469,0 9.168,-3.926 9.168,-10.254 0,-6.309 -3.699,-10.254 -9.168,-10.254 C 3.697,-10.254 0,-6.309 0,0 m 14.98,0 c 0,4.669 -2.288,7.339 -5.793,7.339 -3.508,0 -5.814,-2.67 -5.814,-7.339 0,-4.669 2.306,-7.339 5.814,-7.339 3.505,0 5.793,2.67 5.793,7.339"
         style="fill:#3871c1;fill-opacity:1;fill-rule:nonzero;stroke:none"
         transform="matrix(1.3333333,0,0,-1.3333333,598.75933,295.0096)"
         clip-path="url(#clipPath46)" />
      <path
         id="path47"
         d="m 0,0 h 3.125 v -3.163 h 0.078 c 1.105,2.134 3.22,3.507 6.288,3.507 4.346,0 6.862,-2.801 6.862,-7.3 v -12.865 h -3.316 v 12.274 c 0,3.201 -1.506,4.955 -4.556,4.955 -3.125,0 -5.165,-2.209 -5.165,-5.566 V -19.821 H 0 Z"
         style="fill:#3871c1;fill-opacity:1;fill-rule:nonzero;stroke:none"
         transform="matrix(1.3333333,0,0,-1.3333333,629.7724,281.79587)"
         clip-path="url(#clipPath48)" />
      <path
         id="path49"
         d="M 0,0 C 4.098,0 7.11,-2.438 7.263,-5.795 H 4.098 c -0.229,1.907 -1.771,3.088 -4.211,3.088 -2.422,0 -4.023,-1.2 -4.023,-2.935 0,-1.371 1.049,-2.287 3.298,-2.858 l 3.069,-0.744 c 4.003,-1.01 5.452,-2.459 5.452,-5.374 0,-3.451 -3.26,-5.892 -7.893,-5.892 -4.346,0 -7.376,2.365 -7.719,5.873 h 3.317 c 0.363,-2.059 1.926,-3.166 4.612,-3.166 2.688,0 4.346,1.145 4.346,2.937 0,1.409 -0.82,2.172 -3.05,2.764 l -3.487,0.895 c -3.488,0.896 -5.202,2.686 -5.202,5.393 C -7.393,-2.422 -4.365,0 0,0"
         style="fill:#3871c1;fill-opacity:1;fill-rule:nonzero;stroke:none"
         transform="matrix(1.3333333,0,0,-1.3333333,668.68987,281.33747)"
         clip-path="url(#clipPath50)" />
    </g>
  </g>
</svg>
