<?xml version="1.0" encoding="UTF-8" standalone="no"?>
<!-- Created with Inkscape (http://www.inkscape.org/) -->

<svg
   width="88.904724mm"
   height="54.037521mm"
   viewBox="0 0 88.904724 54.037521"
   version="1.1"
   id="svg1"
   xml:space="preserve"
   xmlns="http://www.w3.org/2000/svg"
   xmlns:svg="http://www.w3.org/2000/svg"><defs
     id="defs1" /><g
     id="layer1"
     transform="translate(-61.975893,-97.087041)"><path
       style="fill:#000000"
       d="m 119.09876,149.38885 c -1.17183,-2.64389 -1.2967,-6.93329 -0.3329,-11.43482 0.42391,-1.9799 0.70951,-3.66105 0.63468,-3.73589 -0.0748,-0.0748 -0.75412,0.17904 -1.50951,0.56416 -1.91242,0.97501 -5.03611,0.95692 -6.29901,-0.0365 -2.31045,-1.8174 -2.58894,-3.50281 -3.04406,-18.42267 l -0.36794,-12.06146 0.86573,-2.46944 c 0.47615,-1.3582 0.88241,-2.15195 0.9028,-1.76389 0.0204,0.38805 0.18737,5.38868 0.37105,11.1125 0.18368,5.72382 0.50399,11.43882 0.71179,12.7 1.24362,7.54767 5.78511,8.81898 11.31512,3.16745 l 2.08137,-2.1271 -0.003,1.15552 c -0.004,1.36216 -1.28177,4.2458 -2.54405,5.74163 -1.01227,1.19956 -2.04201,5.46202 -2.03321,8.4162 0.009,3.09195 0.43499,2.98361 2.20503,-0.56105 2.17244,-4.35051 4.02381,-6.35038 8.92772,-9.64383 4.26087,-2.86159 6.76634,-5.41123 7.6099,-7.74407 0.5749,-1.58985 1.10659,-1.58475 0.80784,0.008 -0.19899,1.06069 -0.13675,1.23472 0.44158,1.23472 0.70768,0 2.92606,-2.10585 3.59484,-3.41249 0.21582,-0.42167 0.57473,-1.61229 0.79758,-2.64584 0.3212,-1.4897 0.46273,-1.73294 0.68285,-1.17361 0.15271,0.38805 0.28882,1.22149 0.30246,1.85208 0.0315,1.45615 0.41033,1.44303 1.91984,-0.0665 1.26518,-1.26517 2.43021,-3.89957 2.85602,-6.45805 0.32171,-1.93306 0.89518,-2.28973 0.88725,-0.55184 -0.01,2.18399 -0.96412,6.06012 -2.07743,8.43921 -1.10782,2.36735 -3.84819,5.42814 -4.85989,5.42814 -0.33661,0 -1.35786,0.78196 -2.26943,1.73769 -1.11015,1.16393 -2.25162,1.94874 -3.45703,2.37687 -1.03371,0.36714 -1.88553,0.9098 -2.00145,1.27505 -0.25884,0.81553 -3.08916,3.05142 -6.20853,4.90461 -4.75321,2.82383 -7.56294,6.71286 -8.50735,11.77528 -0.25552,1.36969 -0.72703,2.86504 -1.0478,3.323 l -0.58321,0.83265 z m -50.762546,-2.26466 c 0.291042,-0.18809 0.932376,-0.34441 1.425188,-0.34738 2.888713,-0.0174 8.951633,-2.42795 13.270721,-5.27626 6.84165,-4.51186 14.584644,-13.99954 14.584644,-17.87091 0,-1.71069 -1.12042,-3.45101 -2.70625,-4.20353 -1.188177,-0.56383 -1.432133,-0.56813 -3.268048,-0.0577 -4.460196,1.24005 -8.842367,3.79127 -8.842367,5.14788 0,0.33698 0.412589,0.99756 0.916865,1.46794 2.394191,2.23329 3.676498,7.78264 2.555392,11.05881 -0.591962,1.72986 -1.546503,2.22847 -1.194038,0.62371 0.283721,-1.29177 -0.184099,-2.2792 -2.820961,-5.95422 -2.474518,-3.44875 -2.61829,-4.28487 -1.368783,-7.96019 0.793315,-2.33348 1.310429,-3.22463 2.609819,-4.49758 2.83497,-2.77729 10.775561,-6.11722 13.135381,-5.52494 0.52319,0.13131 1.39496,0.82046 1.93726,1.53145 2.169313,2.84407 1.27909,9.41895 -2.22381,16.42437 -0.89868,1.79725 -2.322426,4.23799 -3.163885,5.42388 -1.894942,2.67057 -5.850045,6.37269 -8.135645,7.61525 -1.982165,1.0776 -5.98651,1.89193 -11.772594,2.39408 -5.204951,0.45172 -5.630318,0.45218 -4.938889,0.005 z m -5.556249,-11.63623 c -1.707123,-0.72151 -0.624857,-4.97187 2.572021,-10.10105 2.008184,-3.222 4.081669,-5.07383 5.681149,-5.07383 1.481599,0 1.89172,0.74496 1.880817,3.41639 -0.0099,2.41497 -1.056886,5.21898 -3.004972,8.04752 -2.136017,3.1014 -5.019676,4.60247 -7.129015,3.71097 z m 6.016349,-5.99489 c 1.109128,-0.70339 1.656567,-1.29396 1.656567,-1.78708 0,-3.15009 -3.570265,-2.65325 -5.30013,0.73757 -0.655766,1.2854 -0.660118,1.38093 -0.07835,1.71981 1.031847,0.60105 1.989026,0.42867 3.721915,-0.6703 z m 1.818805,-20.07599 c 0.81302,-2.30435 1.559062,-3.50683 2.326904,-3.75053 0.403146,-0.12795 1.848764,-0.86491 3.212485,-1.63768 1.363721,-0.77277 2.550384,-1.33415 2.637028,-1.2475 0.248202,0.2482 -0.969469,3.17925 -1.597857,3.8462 -0.620551,0.65863 -6.328473,4.16051 -6.781457,4.16051 -0.154452,0 -0.06315,-0.61695 0.202897,-1.371 z m 68.127221,-1.45122 c 0.83385,-3.38201 6.66443,-10.31759 9.04999,-10.76513 2.8137,-0.52785 3.67013,0.81649 2.11648,3.32226 -1.23294,1.98854 -2.10142,2.56273 -2.58675,1.71023 -0.19945,-0.35035 -0.7662,-0.61736 -1.31038,-0.61736 -1.84073,0 -3.9015,1.9231 -7.03877,6.56855 -0.40872,0.60521 -0.42894,0.58604 -0.23057,-0.21855 z"
       id="path1" /></g></svg>
